<?xml version="1.0" encoding="UTF-8"?>
<svg xmlns="http://www.w3.org/2000/svg" xmlns:xlink="http://www.w3.org/1999/xlink" width="50pt" height="50pt" viewBox="0 0 50 50" version="1.1">
<g id="surface269632">
<path style=" stroke:none;fill-rule:nonzero;fill:rgb(0%,0%,0%);fill-opacity:1;" d="M 47.71875 0.0117188 L 2.28125 0.0117188 C 0.96875 0.0117188 0.0117188 0.96875 0.0117188 2.28125 L 0.0117188 47.71875 C 0.0117188 49.03125 0.96875 49.988281 2.28125 49.988281 L 47.71875 49.988281 C 49.03125 49.988281 49.988281 49.03125 49.988281 47.71875 L 49.988281 2.28125 C 49.988281 0.96875 49.03125 0.0117188 47.71875 0.0117188 Z M 17.167969 30.949219 L 14.828125 30.949219 L 14.828125 25.914062 L 12.382812 25.914062 L 12.382812 30.949219 L 10.046875 30.949219 L 10.046875 18.917969 L 12.382812 18.917969 L 12.382812 23.742188 L 14.828125 23.742188 L 14.828125 18.917969 L 17.167969 18.917969 Z M 25.023438 21.082031 L 22.878906 21.082031 L 22.878906 30.949219 L 20.542969 30.949219 L 20.542969 21.082031 L 18.417969 21.082031 L 18.417969 18.917969 L 25.023438 18.917969 Z M 33.816406 30.949219 L 33.605469 26.738281 C 33.554688 25.59375 33.464844 24.042969 33.496094 22.753906 L 33.445312 22.753906 C 33.230469 24.042969 32.910156 25.523438 32.679688 26.449219 L 31.644531 30.753906 L 29.984375 30.753906 L 28.984375 26.519531 C 28.75 25.558594 28.429688 24.0625 28.25 22.753906 L 28.199219 22.753906 C 28.160156 24.0625 28.089844 25.578125 28.015625 26.769531 L 27.820312 30.949219 L 25.804688 30.949219 L 26.679688 18.917969 L 29.140625 18.917969 L 30.109375 23.277344 C 30.449219 24.789062 30.75 26.128906 30.964844 27.488281 L 31 27.488281 C 31.179688 26.148438 31.449219 24.789062 31.769531 23.277344 L 32.710938 18.917969 L 35.175781 18.917969 L 35.910156 30.949219 Z M 43.050781 30.949219 L 37.621094 30.949219 L 37.621094 18.917969 L 39.957031 18.917969 L 39.957031 28.96875 L 43.050781 28.96875 Z M 43.050781 30.949219 "/>
</g>
</svg>
