<?xml version="1.0" encoding="UTF-8"?>
<svg xmlns="http://www.w3.org/2000/svg" xmlns:xlink="http://www.w3.org/1999/xlink" width="50pt" height="50pt" viewBox="0 0 50 50" version="1.1">
<g id="surface10157">
<path style=" stroke:none;fill-rule:nonzero;fill:rgb(0%,0%,0%);fill-opacity:1;" d="M 35.703125 0.25 C 35.488281 0.253906 35.269531 0.253906 35.054688 0.28125 L 9.808594 2.167969 C 5.507812 2.507812 2.261719 6.09375 2.261719 10.492188 L 2.261719 16.335938 L 7.210938 20.082031 L 7.210938 12.75 C 7.210938 10.847656 8.8125 9.140625 10.707031 9.003906 L 45.296875 5.878906 L 40.097656 1.796875 C 38.742188 0.753906 37.214844 0.21875 35.703125 0.25 Z M 46.285156 7.769531 L 10.863281 10.984375 C 9.976562 11.046875 9.191406 11.875 9.191406 12.75 L 9.191406 20.976562 L 16.121094 20.421875 L 16.121094 18.9375 C 16.121094 17.710938 17.113281 16.652344 18.378906 16.492188 L 38.488281 14.820312 C 38.53125 14.8125 38.609375 14.789062 38.707031 14.789062 C 39.878906 14.789062 40.839844 15.78125 40.839844 16.988281 L 40.839844 18.101562 L 47.800781 17.453125 L 47.800781 9.40625 C 47.800781 9.203125 47.773438 9.011719 47.738281 8.820312 C 47.589844 8.15625 47.035156 7.71875 46.285156 7.769531 Z M 38.707031 16.769531 L 36.386719 16.988281 L 38.859375 18.285156 L 38.859375 16.988281 C 38.859375 16.875 38.757812 16.769531 38.707031 16.769531 Z M 32.921875 17.390625 L 32.921875 29.640625 L 38.859375 32.796875 L 38.859375 20.546875 Z M 2.261719 18.8125 L 2.261719 30.382812 L 7.210938 34.589844 L 7.210938 22.554688 Z M 47.800781 19.460938 L 40.839844 20.113281 L 40.839844 32.765625 L 47.800781 32.023438 Z M 16.121094 22.402344 L 9.191406 22.988281 L 9.191406 35.640625 L 16.121094 35.054688 Z M 32.765625 31.804688 C 32.726562 31.824219 32.667969 31.835938 32.609375 31.835938 L 18.101562 33.261719 L 18.101562 38.953125 C 18.101562 39.066406 18.171875 39.167969 18.226562 39.167969 L 18.253906 39.167969 L 38.363281 37.375 C 38.644531 37.339844 38.859375 37.054688 38.859375 36.878906 L 38.859375 35.023438 Z M 2.261719 32.980469 L 2.261719 40.777344 C 2.261719 42.046875 2.78125 43.285156 3.652344 44.148438 L 7.210938 47.800781 L 7.210938 37.1875 Z M 47.800781 34.003906 L 40.839844 34.746094 L 40.839844 36.878906 C 40.839844 38.105469 39.847656 39.199219 38.582031 39.355469 L 18.472656 41.117188 C 18.425781 41.125 18.320312 41.148438 18.226562 41.148438 C 17.054688 41.148438 16.121094 40.160156 16.121094 38.953125 L 16.121094 37.066406 L 9.191406 37.652344 L 9.191406 48.390625 C 9.191406 48.792969 9.347656 49.179688 9.625 49.441406 C 9.820312 49.625 10.0625 49.734375 10.335938 49.78125 C 10.382812 49.785156 10.445312 49.78125 10.492188 49.78125 C 10.566406 49.789062 10.621094 49.789062 10.707031 49.78125 L 44.148438 46.8125 L 44.148438 46.84375 L 44.304688 46.8125 C 46.195312 46.675781 47.800781 44.96875 47.800781 43.066406 Z M 47.800781 34.003906 "/>
</g>
</svg>
