<?xml version="1.0" encoding="UTF-8"?>
<svg xmlns="http://www.w3.org/2000/svg" xmlns:xlink="http://www.w3.org/1999/xlink" width="48pt" height="48pt" viewBox="0 0 48 48" version="1.1">
<g id="surface9261">
<path style=" stroke:none;fill-rule:evenodd;fill:rgb(0%,0%,0%);fill-opacity:1;" d="M 22.75 0.386719 C 23.523438 -0.046875 24.476562 -0.046875 25.25 0.386719 C 29.074219 2.53125 40.582031 8.996094 44.410156 11.140625 C 45.183594 11.574219 45.660156 12.375 45.660156 13.246094 C 45.660156 17.539062 45.660156 30.460938 45.660156 34.753906 C 45.660156 35.621094 45.183594 36.425781 44.410156 36.859375 C 40.585938 39.003906 29.074219 45.46875 25.25 47.613281 C 24.476562 48.046875 23.523438 48.046875 22.75 47.613281 C 18.925781 45.46875 7.414062 39.003906 3.589844 36.859375 C 2.816406 36.425781 2.339844 35.625 2.339844 34.753906 C 2.339844 30.460938 2.339844 17.539062 2.339844 13.246094 C 2.339844 12.378906 2.816406 11.574219 3.589844 11.140625 C 7.414062 8.996094 18.925781 2.53125 22.75 0.386719 Z M 22.75 0.386719 "/>
<path style=" stroke:none;fill-rule:evenodd;fill:rgb(0%,0%,0%);fill-opacity:1;" d="M 2.6875 35.859375 C 2.382812 35.453125 2.339844 35.070312 2.339844 34.550781 C 2.339844 30.28125 2.339844 17.433594 2.339844 13.164062 C 2.339844 12.300781 2.816406 11.503906 3.585938 11.074219 C 7.398438 8.9375 18.867188 2.515625 22.679688 0.378906 C 23.453125 -0.0546875 24.496094 -0.0429688 25.269531 0.386719 C 29.078125 2.523438 40.511719 8.890625 44.324219 11.027344 C 44.628906 11.199219 44.867188 11.40625 45.074219 11.683594 Z M 2.6875 35.859375 "/>
<path style=" stroke:none;fill-rule:evenodd;fill:rgb(100%,100%,100%);fill-opacity:1;" d="M 24 8.039062 C 32.808594 8.039062 39.960938 15.191406 39.960938 24 C 39.960938 32.808594 32.808594 39.960938 24 39.960938 C 15.191406 39.960938 8.039062 32.808594 8.039062 24 C 8.039062 15.191406 15.191406 8.039062 24 8.039062 Z M 24 16.019531 C 28.402344 16.019531 31.980469 19.59375 31.980469 24 C 31.980469 28.402344 28.402344 31.980469 24 31.980469 C 19.597656 31.980469 16.019531 28.402344 16.019531 24 C 16.019531 19.59375 19.59375 16.019531 24 16.019531 Z M 24 16.019531 "/>
<path style=" stroke:none;fill-rule:evenodd;fill:rgb(0%,0%,0%);fill-opacity:1;" d="M 45.074219 11.695312 C 45.660156 12.246094 45.648438 13.074219 45.648438 13.726562 C 45.648438 18.054688 45.613281 30.359375 45.660156 34.683594 C 45.664062 35.136719 45.515625 35.613281 45.292969 35.96875 L 23.535156 24 Z M 45.074219 11.695312 "/>
</g>
</svg>
